# 3ds Max Wavefront OBJ Exporter v0.97b - (c)2007 guruware
# File Created: 15.02.2016 21:37:41

#
# object bb8
#

v  14.4138 156.5052 4.6344
v  14.7695 156.5572 -6.1768
v  8.1059 166.3878 -0.8972
v  5.8166 156.5580 -9.1933
v  0.0179 156.5665 -3.8484
v  2.6765 156.6216 5.6630
v  5.9761 129.5915 4.4065
v  3.4600 133.5021 -7.5529
v  15.8903 133.4906 -2.3904
v  4.5262 137.9680 6.5573
v  22.0993 121.4600 5.0574
v  -5.3698 123.8851 30.9163
v  -5.0515 98.3446 34.6275
v  -44.6425 112.5023 -5.4456
v  -27.8233 137.7738 3.6237
v  -21.2417 127.0476 -27.1713
v  -66.4754 65.5160 0.8731
v  -52.8614 10.3190 -2.2269
v  -20.1378 41.6021 56.5334
v  -1.3003 58.5799 -56.5963
v  -11.5271 105.0508 -18.4019
v  43.6900 55.2673 -19.8813
v  -4.4623 99.0871 -34.0478
v  -11.9676 140.5552 -11.4183
v  18.8273 101.5518 -19.8262
v  24.0823 98.0450 1.2629
v  -21.2408 91.8335 -9.6658
v  -12.6827 140.2730 12.2906
v  -35.0421 98.3681 24.5001
v  -41.6314 95.6666 4.6819
v  -31.4294 99.5270 -27.1173
v  -20.7317 -7.1305 -1.3920
v  -14.7131 1.2784 31.2821
v  -3.4485 105.6325 14.8934
v  10.7451 55.1963 53.7964
v  33.6998 68.0804 32.7649
v  -40.9758 93.8790 22.8525
v  -39.3878 55.9522 -49.9777
v  -13.1095 24.6733 -52.1539
v  -14.6630 91.7875 13.6198
v  10.1894 94.8796 25.4284
v  43.2380 32.4052 12.9287
v  21.5360 2.3879 -8.7274
v  -52.0423 74.3537 32.3913
v  12.7471 124.4952 -20.8965
v  0.4271 140.5671 5.6400
v  -25.2937 129.1047 -1.4685
v  -34.1153 121.1248 3.4824
# 48 vertices

vn 0.8348 0.5497 0.0301
vn 0.2585 0.5872 -0.7671
vn -0.5342 0.6144 -0.5806
vn -0.7846 0.5812 0.2159
vn 0.1378 -0.9325 -0.3339
vn -0.9694 -0.2031 0.1375
vn -0.9842 -0.1333 0.1166
vn -0.9766 -0.1525 0.1513
vn 0.5898 -0.1036 0.8009
vn 0.5669 -0.1713 0.8058
vn 0.5684 -0.1672 0.8056
vn 0.9980 0.0539 0.0331
vn 0.3652 -0.1131 -0.9241
vn 0.3814 -0.1043 -0.9185
vn 0.3378 -0.1275 -0.9325
vn 0.3162 -0.1387 -0.9385
vn -0.6776 0.0170 -0.7352
vn -0.9655 -0.1531 0.2106
vn -0.9464 -0.1839 0.2656
vn 0.5521 -0.2108 0.8067
vn 0.0877 0.0564 0.9945
vn 0.0862 0.3013 0.9496
vn 0.0868 0.2651 0.9603
vn 0.0795 0.5250 0.8474
vn 0.6371 0.2029 0.7436
vn 0.6863 0.1130 0.7185
vn 0.6278 0.2184 0.7471
vn -0.7410 0.4563 -0.4927
vn -0.6318 0.6801 -0.3719
vn -0.6846 0.5566 -0.4707
vn -0.7929 -0.2937 0.5339
vn -0.6983 -0.4820 0.5292
vn -0.7396 -0.3635 0.5665
vn 0.5296 0.6051 -0.5944
vn 0.4385 0.4904 -0.7532
vn 0.4675 0.4871 -0.7376
vn 0.4150 0.4926 -0.7650
vn 0.0961 -0.9671 -0.2357
vn 0.1702 -0.9790 -0.1123
vn -0.0775 -0.9852 -0.1531
vn -0.2918 0.4078 0.8652
vn -0.4245 0.4546 0.7830
vn -0.6314 0.3648 0.6843
vn -0.2230 -0.9743 0.0311
vn -0.1931 -0.9344 -0.2992
vn -0.4613 -0.8350 0.2999
vn -0.6030 -0.6014 0.5242
vn 0.0671 0.6211 0.7808
vn 0.0482 0.5845 0.8100
vn 0.2978 0.6342 0.7135
vn -0.0852 0.5504 0.8305
vn -0.7085 0.6194 -0.3380
vn -0.6209 0.6897 -0.3727
vn -0.6184 0.6914 -0.3736
vn -0.7488 -0.3608 -0.5560
vn -0.6537 -0.5207 -0.5492
vn -0.8806 -0.1929 -0.4328
vn -0.3888 -0.6867 -0.6143
vn -0.1733 -0.8227 -0.5415
vn -0.4960 0.7816 -0.3782
vn -0.6196 0.4531 0.6409
vn -0.0285 -0.9905 0.1342
vn -0.0622 -0.9443 0.3232
vn -0.1711 -0.9517 0.2551
vn 0.0799 -0.9926 0.0917
vn 0.5805 -0.5239 0.6234
vn 0.4135 -0.7312 0.5426
vn 0.4525 -0.8031 0.3877
vn 0.6110 -0.3546 -0.7078
vn 0.5648 -0.3900 -0.7273
vn 0.5981 -0.3648 -0.7136
vn -0.1404 0.4968 0.8565
vn -0.1416 0.4943 0.8577
vn 0.5139 -0.4245 0.7454
vn 0.5677 0.7940 -0.2174
vn 0.4301 0.8467 -0.3131
vn 0.5350 0.8095 -0.2419
vn -0.1666 0.9860 0.0067
vn -0.0925 0.9957 0.0091
vn -0.0986 0.9951 0.0089
vn 0.8673 -0.0072 0.4977
vn -0.4415 -0.1582 -0.8832
vn -0.1769 0.6014 -0.7791
vn 0.6549 -0.3179 -0.6856
vn 0.5099 0.4813 -0.7129
vn -0.8656 0.2848 0.4119
vn 0.8625 -0.4207 -0.2812
vn 0.7066 0.6972 -0.1208
vn 0.6894 0.7188 -0.0900
vn 0.6678 0.7423 -0.0539
vn -0.1660 -0.0710 -0.9836
vn -0.0166 0.9998 0.0114
vn 0.5643 0.6236 0.5410
vn 0.4481 0.6954 0.5617
vn 0.4628 0.6874 0.5598
vn -0.7796 -0.4113 0.4723
vn -0.4979 0.7647 -0.4091
vn -0.2882 0.9561 0.0532
vn 0.7418 0.6428 -0.1912
vn 0.2320 -0.9485 -0.2155
vn 0.9500 0.2426 -0.1964
vn 0.9467 0.1841 -0.2645
vn 0.9463 0.1811 -0.2678
vn 0.9732 0.1822 0.1403
vn 0.7178 -0.1818 0.6721
vn 0.2480 -0.9482 0.1984
vn 0.1016 -0.8498 -0.5172
vn -0.7402 0.2728 -0.6146
vn -0.2465 0.0894 -0.9650
vn -0.8779 -0.3522 -0.3244
vn -0.9495 0.0186 0.3132
vn 0.2732 0.7729 0.5727
vn -0.9151 0.0468 0.4005
vn 0.2851 -0.4809 0.8291
vn 0.5413 0.3451 0.7668
vn 0.9374 0.1316 -0.3224
vn 0.6518 0.7438 -0.1479
vn 0.6339 -0.2458 0.7333
vn -0.6339 0.2458 -0.7333
vn -0.8026 0.5580 0.2111
# 120 vertex normals

g bb8
s 1
f 1//1 2//1 3//1 
s 2
f 2//2 4//2 3//2 
s 4
f 4//3 5//3 3//3 
s 8
f 5//4 6//4 3//4 
s 1
f 7//5 8//5 9//5 
s 2
f 7//6 10//7 8//8 
s 4
f 7//9 9//10 10//11 
s 8
f 9//12 2//12 1//12 
s 16
f 9//13 8//14 4//15 
f 9//13 4//15 2//16 
s 32
f 8//17 5//17 4//17 
s 2
f 8//8 10//7 6//18 
f 8//8 6//18 5//19 
s 4
f 10//11 9//10 1//20 
s 16
f 10//21 1//22 6//23 
f 6//23 1//22 3//24 
s 1
f 11//25 12//26 13//27 
f 14//28 15//29 16//30 
f 17//31 18//32 19//33 
f 20//34 21//34 22//34 
s 2
f 23//35 24//36 25//37 
s 4
f 23//38 26//39 27//40 
s 2
f 13//41 28//42 29//43 
s 4
f 30//44 31//45 27//40 
s 1
f 18//32 32//46 33//47 
s 2
f 34//48 35//49 36//50 
f 34//48 37//51 35//49 
s 4
f 21//52 38//53 37//54 
s 2
f 38//55 18//56 17//57 
f 18//56 39//58 32//59 
s 1
f 24//60 16//30 15//29 
s 2
f 29//43 28//42 15//61 
s 4
f 40//62 13//63 29//64 
f 41//65 40//62 26//39 
f 42//66 33//67 43//68 
s 8
f 20//69 22//70 43//71 
s 2
f 44//72 19//73 35//49 
s 4
f 35//74 33//67 42//66 
f 45//75 24//76 46//77 
s 8
f 15//78 28//79 24//80 
s 2
f 26//81 11//81 41//81 
s 16
f 45//82 25//82 24//82 
f 21//83 20//83 38//83 
s 8
f 39//84 20//69 43//71 
s 4
f 31//45 23//38 27//40 
s 2
f 16//85 24//36 23//35 
f 29//43 15//61 14//86 
s 4
f 29//64 30//44 40//62 
s 16
f 22//87 42//87 43//87 
s 32
f 21//88 36//89 22//90 
s 4
f 30//44 27//40 40//62 
f 26//39 40//62 27//40 
s 2
f 18//56 38//55 39//58 
s 32
f 38//91 20//91 39//91 
s 8
f 28//79 46//92 24//80 
s 16
f 11//93 46//94 12//95 
s 1
f 44//96 17//31 19//33 
s 4
f 37//54 38//53 17//97 
s 8
f 21//98 37//98 34//98 
s 32
f 21//88 34//99 36//89 
s 4
f 26//39 23//38 25//100 
s 8
f 25//101 45//102 26//103 
s 64
f 22//104 36//104 42//104 
s 4
f 36//105 35//74 42//66 
f 43//68 33//67 32//106 
s 2
f 32//59 39//58 43//107 
s 1
f 31//108 14//28 16//30 
s 8
f 16//109 23//109 31//109 
s 16
f 31//110 30//110 14//110 
s 2
f 29//43 14//86 30//111 
s 16
f 12//95 46//94 28//112 
s 32
f 13//113 12//113 28//113 
s 4
f 35//74 19//114 33//67 
s 1
f 19//33 18//32 33//47 
f 41//115 11//25 13//27 
s 4
f 13//63 40//62 41//65 
s 8
f 45//102 11//116 26//103 
s 4
f 46//77 11//117 45//75 
s 1
f 47//118 15//118 48//118 
s 2
f 15//119 47//119 48//119 
f 37//51 44//72 35//49 
s 16
f 37//120 17//120 44//120 
# 0 polygons - 82 triangles

